<svg width="1015" height="280" viewBox="0 0 1015 280" fill="none" xmlns="http://www.w3.org/2000/svg">
<g clip-path="url(#clip0_1_14)">
<rect width="1015" height="280" fill="white"/>
<path d="M363.034 133.314L334.163 138.428C332.956 134.734 331.038 131.219 328.411 127.881C325.854 124.543 322.374 121.808 317.97 119.678C313.567 117.547 308.063 116.482 301.457 116.482C292.438 116.482 284.909 118.506 278.872 122.554C272.835 126.531 269.817 131.68 269.817 138.001C269.817 143.47 271.841 147.874 275.889 151.212C279.938 154.55 286.472 157.284 295.491 159.415L321.486 165.381C336.543 168.861 347.764 174.223 355.151 181.467C362.537 188.712 366.23 198.122 366.23 209.699C366.23 219.5 363.389 228.236 357.707 235.906C352.097 243.506 344.249 249.472 334.163 253.804C324.149 258.136 312.537 260.303 299.327 260.303C281.003 260.303 266.053 256.396 254.476 248.584C242.899 240.7 235.797 229.514 233.169 215.026L263.957 210.338C265.875 218.364 269.817 224.436 275.783 228.555C281.749 232.604 289.526 234.628 299.114 234.628C309.554 234.628 317.899 232.462 324.149 228.129C330.399 223.726 333.524 218.364 333.524 212.043C333.524 206.929 331.607 202.632 327.771 199.152C324.007 195.672 318.219 193.044 310.406 191.268L282.707 185.196C267.438 181.716 256.145 176.176 248.83 168.577C241.585 160.977 237.963 151.354 237.963 139.706C237.963 130.047 240.662 121.595 246.06 114.351C251.457 107.107 258.915 101.46 268.432 97.4119C277.949 93.2926 288.851 91.233 301.138 91.233C318.822 91.233 332.743 95.0682 342.899 102.739C353.055 110.338 359.767 120.53 363.034 133.314ZM447.779 260.303C431.657 260.303 417.772 256.858 406.124 249.969C394.547 243.009 385.598 233.243 379.277 220.672C373.027 208.03 369.902 193.222 369.902 176.247C369.902 159.486 373.027 144.713 379.277 131.929C385.598 119.145 394.405 109.166 405.698 101.993C417.061 94.8196 430.343 91.233 445.542 91.233C454.775 91.233 463.723 92.7599 472.388 95.8139C481.053 98.8679 488.83 103.662 495.719 110.196C502.608 116.73 508.042 125.217 512.019 135.658C515.996 146.027 517.985 158.634 517.985 173.477V184.77H387.907V160.906H486.77C486.77 152.526 485.066 145.104 481.657 138.641C478.248 132.107 473.453 126.957 467.275 123.193C461.167 119.429 453.993 117.547 445.755 117.547C436.806 117.547 428.993 119.749 422.317 124.152C415.712 128.484 410.598 134.166 406.976 141.197C403.425 148.158 401.65 155.722 401.65 163.889V182.533C401.65 193.47 403.567 202.774 407.402 210.445C411.309 218.115 416.742 223.974 423.702 228.023C430.662 232 438.794 233.989 448.098 233.989C454.135 233.989 459.64 233.136 464.611 231.432C469.583 229.656 473.88 227.028 477.502 223.548C481.124 220.068 483.894 215.771 485.811 210.658L515.961 216.091C513.546 224.969 509.213 232.746 502.963 239.422C496.784 246.027 489.007 251.176 479.632 254.869C470.328 258.491 459.711 260.303 447.779 260.303ZM529.327 257V93.3636H560.116V119.358H561.82C564.803 110.551 570.059 103.626 577.587 98.5838C585.187 93.4702 593.781 90.9133 603.369 90.9133C605.357 90.9133 607.701 90.9844 610.4 91.1264C613.17 91.2685 615.336 91.446 616.898 91.6591V122.128C615.62 121.773 613.347 121.382 610.08 120.956C606.813 120.459 603.546 120.21 600.279 120.21C592.751 120.21 586.039 121.808 580.144 125.004C574.32 128.129 569.704 132.497 566.295 138.108C562.886 143.648 561.181 149.969 561.181 157.071V257H529.327ZM649.761 201.496L649.548 162.611H655.088L720.287 93.3636H758.426L684.065 172.199H679.058L649.761 201.496ZM620.464 257V38.8182H652.318V257H620.464ZM723.802 257L665.208 179.23L687.154 156.964L762.9 257H723.802ZM827.244 260.303C811.121 260.303 797.237 256.858 785.589 249.969C774.012 243.009 765.063 233.243 758.742 220.672C752.492 208.03 749.367 193.222 749.367 176.247C749.367 159.486 752.492 144.713 758.742 131.929C765.063 119.145 773.87 109.166 785.163 101.993C796.526 94.8196 809.808 91.233 825.006 91.233C834.239 91.233 843.188 92.7599 851.853 95.8139C860.518 98.8679 868.295 103.662 875.184 110.196C882.073 116.73 887.506 125.217 891.484 135.658C895.461 146.027 897.45 158.634 897.45 173.477V184.77H767.371V160.906H866.235C866.235 152.526 864.531 145.104 861.121 138.641C857.712 132.107 852.918 126.957 846.739 123.193C840.631 119.429 833.458 117.547 825.219 117.547C816.271 117.547 808.458 119.749 801.782 124.152C795.177 128.484 790.063 134.166 786.441 141.197C782.89 148.158 781.114 155.722 781.114 163.889V182.533C781.114 193.47 783.032 202.774 786.867 210.445C790.773 218.115 796.207 223.974 803.167 228.023C810.127 232 818.259 233.989 827.563 233.989C833.6 233.989 839.104 233.136 844.076 231.432C849.048 229.656 853.344 227.028 856.967 223.548C860.589 220.068 863.359 215.771 865.276 210.658L895.425 216.091C893.011 224.969 888.678 232.746 882.428 239.422C876.249 246.027 868.472 251.176 859.097 254.869C849.793 258.491 839.175 260.303 827.244 260.303ZM985.177 93.3636V118.932H895.795V93.3636H985.177ZM919.765 54.1591H951.619V208.953C951.619 215.132 952.542 219.784 954.389 222.909C956.235 225.963 958.615 228.058 961.527 229.195C964.51 230.26 967.741 230.793 971.221 230.793C973.778 230.793 976.015 230.615 977.933 230.26C979.85 229.905 981.342 229.621 982.407 229.408L988.16 255.722C986.314 256.432 983.686 257.142 980.277 257.852C976.868 258.634 972.606 259.06 967.493 259.131C959.112 259.273 951.299 257.781 944.055 254.656C936.811 251.531 930.951 246.702 926.477 240.168C922.002 233.634 919.765 225.43 919.765 215.558V54.1591Z" fill="#B4B4B4"/>
<path d="M142.069 8.00341L142.068 8.00342C99.9936 8.41167 63.0037 39.0394 63 85.884V85.8841C63 126.412 86.707 166.254 122.847 209.583L65.1426 205.457L63 205.304L63 207.452L63 232.5V234.777L65.2576 234.483L128.69 226.245L125.424 270.924L125.267 273.07H127.419H157.151H159.378L159.139 270.856L154.322 226.25L218.919 234.484L221.172 234.771V232.5V207.452V205.318L219.042 205.456L161.657 209.193C177.226 190.296 191.664 170.461 202.415 150.429C213.842 129.139 221.172 107.503 221.172 86.453C221.172 39.0169 183.765 7.62363 142.069 8.00341ZM86.1663 88.5312C86.1663 54.7362 113.277 32.5741 142.992 32.6373C172.634 32.7004 198.206 54.4822 198.206 88.6144C198.206 101.66 192.944 120.54 182.864 140.113C173.041 159.186 158.739 178.728 140.586 193.958C104.158 160.875 86.1663 123.927 86.1663 88.5312Z" fill="#736700" stroke="#736700" stroke-width="4"/>
</g>
<defs>
<clipPath id="clip0_1_14">
<rect width="1015" height="280" fill="white"/>
</clipPath>
</defs>
</svg>
