<?xml version="1.0" encoding="UTF-8" standalone="no"?>
<!DOCTYPE svg PUBLIC "-//W3C//DTD SVG 1.1//EN"
 "http://www.w3.org/Graphics/SVG/1.1/DTD/svg11.dtd">
<!-- Generated by graphviz version 8.0.5 (20230430.1635)
 -->
<!-- Title: G Pages: 1 -->
<svg width="208pt" height="188pt"
 viewBox="0.00 0.00 207.88 188.00" xmlns="http://www.w3.org/2000/svg" xmlns:xlink="http://www.w3.org/1999/xlink">
<g id="graph0" class="graph" transform="scale(1 1) rotate(0) translate(4 184)">
<title>G</title>
<polygon fill="white" stroke="none" points="-4,4 -4,-184 203.88,-184 203.88,4 -4,4"/>
<!-- 5353602176 -->
<g id="node1" class="node">
<title>5353602176</title>
<polygon fill="none" stroke="black" points="126,-180 72,-180 72,-144 126,-144 126,-180"/>
<text text-anchor="middle" x="99" y="-156.95" font-family="Times,serif" font-size="14.00">list</text>
</g>
<!-- 5353602432 -->
<g id="node2" class="node">
<title>5353602432</title>
<polygon fill="none" stroke="black" points="54,-108 0,-108 0,-72 54,-72 54,-108"/>
<text text-anchor="middle" x="27" y="-84.95" font-family="Times,serif" font-size="14.00">[0]=1</text>
</g>
<!-- 5353602176&#45;&gt;5353602432 -->
<g id="edge1" class="edge">
<title>5353602176&#45;&gt;5353602432</title>
<path fill="none" stroke="black" d="M81.2,-143.7C72.55,-135.28 61.99,-125.02 52.5,-115.79"/>
<polygon fill="black" stroke="black" points="55.45,-113.81 45.84,-109.35 50.57,-118.83 55.45,-113.81"/>
</g>
<!-- 5353602496 -->
<g id="node3" class="node">
<title>5353602496</title>
<polygon fill="none" stroke="black" points="126,-108 72,-108 72,-72 126,-72 126,-108"/>
<text text-anchor="middle" x="99" y="-84.95" font-family="Times,serif" font-size="14.00">[1]=2</text>
</g>
<!-- 5353602176&#45;&gt;5353602496 -->
<g id="edge2" class="edge">
<title>5353602176&#45;&gt;5353602496</title>
<path fill="none" stroke="black" d="M99,-143.7C99,-136.24 99,-127.32 99,-118.97"/>
<polygon fill="black" stroke="black" points="102.5,-119.1 99,-109.1 95.5,-119.1 102.5,-119.1"/>
</g>
<!-- 5353602816 -->
<g id="node4" class="node">
<title>5353602816</title>
<polygon fill="none" stroke="black" points="199.88,-108 144.12,-108 144.12,-72 199.88,-72 199.88,-108"/>
<text text-anchor="middle" x="172" y="-84.95" font-family="Times,serif" font-size="14.00">[2]:dict</text>
</g>
<!-- 5353602176&#45;&gt;5353602816 -->
<g id="edge3" class="edge">
<title>5353602176&#45;&gt;5353602816</title>
<path fill="none" stroke="black" d="M117.04,-143.7C125.82,-135.28 136.52,-125.02 146.15,-115.79"/>
<polygon fill="black" stroke="black" points="148.11,-118.79 152.91,-109.35 143.27,-113.74 148.11,-118.79"/>
</g>
<!-- 5353602560 -->
<g id="node5" class="node">
<title>5353602560</title>
<polygon fill="none" stroke="black" points="199,-36 145,-36 145,0 199,0 199,-36"/>
<text text-anchor="middle" x="172" y="-12.95" font-family="Times,serif" font-size="14.00">[&#39;a&#39;]=3</text>
</g>
<!-- 5353602816&#45;&gt;5353602560 -->
<g id="edge4" class="edge">
<title>5353602816&#45;&gt;5353602560</title>
<path fill="none" stroke="black" d="M172,-71.7C172,-64.24 172,-55.32 172,-46.97"/>
<polygon fill="black" stroke="black" points="175.5,-47.1 172,-37.1 168.5,-47.1 175.5,-47.1"/>
</g>
</g>
</svg>
