<?xml version="1.0" encoding="UTF-8" standalone="no"?>
<!DOCTYPE svg PUBLIC "-//W3C//DTD SVG 1.1//EN"
 "http://www.w3.org/Graphics/SVG/1.1/DTD/svg11.dtd">
<!-- Generated by graphviz version 8.0.5 (20230430.1635)
 -->
<!-- Title: G Pages: 1 -->
<svg width="208pt" height="196pt"
 viewBox="0.00 0.00 207.88 196.36" xmlns="http://www.w3.org/2000/svg" xmlns:xlink="http://www.w3.org/1999/xlink">
<g id="graph0" class="graph" transform="scale(1 1) rotate(0) translate(4 192.36)">
<title>G</title>
<polygon fill="white" stroke="none" points="-4,4 -4,-192.36 203.88,-192.36 203.88,4 -4,4"/>
<!-- 5345369024 -->
<g id="node1" class="node">
<title>5345369024</title>
<ellipse fill="lightblue" stroke="black" cx="99" cy="-166.18" rx="22.18" ry="22.18"/>
<text text-anchor="middle" x="99" y="-161.13" font-family="Times,serif" font-size="14.00">list</text>
</g>
<!-- 5353442880 -->
<g id="node2" class="node">
<title>5353442880</title>
<polygon fill="none" stroke="black" points="54,-108 0,-108 0,-72 54,-72 54,-108"/>
<text text-anchor="middle" x="27" y="-84.95" font-family="Times,serif" font-size="14.00">[0]=1</text>
</g>
<!-- 5345369024&#45;&gt;5353442880 -->
<g id="edge1" class="edge">
<title>5345369024&#45;&gt;5353442880</title>
<path fill="none" stroke="black" d="M83.73,-149.45C74.3,-139.73 61.98,-127.04 51.24,-115.97"/>
<polygon fill="black" stroke="black" points="54.23,-114 44.76,-109.26 49.21,-118.88 54.23,-114"/>
</g>
<!-- 5353442496 -->
<g id="node3" class="node">
<title>5353442496</title>
<polygon fill="none" stroke="black" points="126,-108 72,-108 72,-72 126,-72 126,-108"/>
<text text-anchor="middle" x="99" y="-84.95" font-family="Times,serif" font-size="14.00">[1]=2</text>
</g>
<!-- 5345369024&#45;&gt;5353442496 -->
<g id="edge2" class="edge">
<title>5345369024&#45;&gt;5353442496</title>
<path fill="none" stroke="black" d="M99,-143.72C99,-136.05 99,-127.27 99,-119.12"/>
<polygon fill="black" stroke="black" points="102.5,-119.18 99,-109.18 95.5,-119.18 102.5,-119.18"/>
</g>
<!-- 5353171392 -->
<g id="node4" class="node">
<title>5353171392</title>
<polygon fill="none" stroke="black" points="199.88,-108 144.12,-108 144.12,-72 199.88,-72 199.88,-108"/>
<text text-anchor="middle" x="172" y="-84.95" font-family="Times,serif" font-size="14.00">[2]:dict</text>
</g>
<!-- 5345369024&#45;&gt;5353171392 -->
<g id="edge3" class="edge">
<title>5345369024&#45;&gt;5353171392</title>
<path fill="none" stroke="black" d="M114.13,-149.81C123.67,-140.11 136.22,-127.35 147.2,-116.2"/>
<polygon fill="black" stroke="black" points="149.33,-119.01 153.85,-109.43 144.34,-114.1 149.33,-119.01"/>
</g>
<!-- 5353173184 -->
<g id="node5" class="node">
<title>5353173184</title>
<polygon fill="none" stroke="black" points="199,-36 145,-36 145,0 199,0 199,-36"/>
<text text-anchor="middle" x="172" y="-12.95" font-family="Times,serif" font-size="14.00">[&#39;a&#39;]=3</text>
</g>
<!-- 5353171392&#45;&gt;5353173184 -->
<g id="edge4" class="edge">
<title>5353171392&#45;&gt;5353173184</title>
<path fill="none" stroke="black" d="M172,-71.7C172,-64.24 172,-55.32 172,-46.97"/>
<polygon fill="black" stroke="black" points="175.5,-47.1 172,-37.1 168.5,-47.1 175.5,-47.1"/>
</g>
</g>
</svg>
